<?xml version="1.0" encoding="UTF-8" standalone="no"?>
<!DOCTYPE svg PUBLIC "-//W3C//DTD SVG 1.1//EN" "http://www.w3.org/Graphics/SVG/1.1/DTD/svg11.dtd">
<svg version="1.1" xmlns="http://www.w3.org/2000/svg" xmlns:xlink="http://www.w3.org/1999/xlink" preserveAspectRatio="xMidYMid meet" viewBox="0 0 280 60" width="280" height="60"><defs><path d="M47.4 32.75C47.4 44.09 38.19 53.3 26.85 53.3C15.51 53.3 6.31 44.09 6.31 32.75C6.31 21.42 15.51 12.21 26.85 12.21C38.19 12.21 47.4 21.42 47.4 32.75Z" id="a2cD2R96qp"></path><path d="M165.88 47.82C158.87 48.96 153.69 48.28 150.36 45.79C147.03 43.3 145.54 38.99 145.89 32.86C147.24 24.33 150.98 20.07 157.08 20.07C163.19 20.07 166.12 24.33 165.88 32.86" id="b3JrMIxJX"></path><path d="M131.17 9.24L131.17 47.72L102.71 9.24L102.71 47.72" id="b24dMtptG2"></path><path d="M165.89 32.75L145.84 32.75" id="bPJBtTMV"></path><path d="M191.76 22.08L175.23 22.08" id="a87Qx14j5O"></path><path d="M191.76 47.72C186.65 48.98 183.6 48.38 182.6 45.93C181.6 43.49 181.07 31.25 181 9.24" id="b1C9eIGPKD"></path><path d="M227.21 9.24L211.38 48.25L197.11 9.24" id="dFpm7Ncq2"></path><path d="M271.3 47.72L249.29 47.72L269.75 19.11L250.27 19.11" id="a5KQVAdmqA"></path><path d="M237.88 47.03L237.88 19.11" id="cbCYfMmUi"></path><path d="M90.57 32.75C90.57 44.09 81.37 53.3 70.03 53.3C58.69 53.3 49.48 44.09 49.48 32.75C49.48 21.42 58.69 12.21 70.03 12.21C81.37 12.21 90.57 21.42 90.57 32.75Z" id="aK11VynV6"></path><path d="" id="asQRp6R5M"></path><path d="M177.32 22.08C177.32 23.73 175.99 25.06 174.34 25.06C172.7 25.06 171.37 23.73 171.37 22.08C171.37 20.44 172.7 19.11 174.34 19.11C175.99 19.11 177.32 20.44 177.32 22.08Z" id="c1TkIK6X08"></path><path d="M194.73 22.08C194.73 23.73 193.4 25.06 191.76 25.06C190.12 25.06 188.79 23.73 188.79 22.08C188.79 20.44 190.12 19.11 191.76 19.11C193.4 19.11 194.73 20.44 194.73 22.08Z" id="hIB24Qymh"></path><path d="M194.73 47.72C194.73 49.36 193.4 50.69 191.76 50.69C190.12 50.69 188.79 49.36 188.79 47.72C188.79 46.08 190.12 44.74 191.76 44.74C193.4 44.74 194.73 46.08 194.73 47.72Z" id="baVaubJlTM"></path><path d="M105.69 47.72C105.69 49.36 104.36 50.69 102.71 50.69C101.07 50.69 99.74 49.36 99.74 47.72C99.74 46.08 101.07 44.74 102.71 44.74C104.36 44.74 105.69 46.08 105.69 47.72Z" id="c2zE8w8fte"></path><path d="M134.14 47.72C134.14 49.36 132.81 50.69 131.17 50.69C129.53 50.69 128.2 49.36 128.2 47.72C128.2 46.08 129.53 44.74 131.17 44.74C132.81 44.74 134.14 46.08 134.14 47.72Z" id="a1FTWP7ze2"></path><path d="M105.69 9.24C105.69 10.88 104.36 12.21 102.71 12.21C101.07 12.21 99.74 10.88 99.74 9.24C99.74 7.59 101.07 6.26 102.71 6.26C104.36 6.26 105.69 7.59 105.69 9.24Z" id="d1zmc9JoNi"></path><path d="M134.14 9.24C134.14 10.88 132.81 12.21 131.17 12.21C129.53 12.21 128.2 10.88 128.2 9.24C128.2 7.59 129.53 6.26 131.17 6.26C132.81 6.26 134.14 7.59 134.14 9.24Z" id="h1j8fdLHfl"></path><path d="M183.98 9.24C183.98 10.88 182.65 12.21 181 12.21C179.36 12.21 178.03 10.88 178.03 9.24C178.03 7.59 179.36 6.26 181 6.26C182.65 6.26 183.98 7.59 183.98 9.24Z" id="i7imkMlux"></path><path d="M168.85 47.72C168.85 49.36 167.52 50.69 165.88 50.69C164.24 50.69 162.91 49.36 162.91 47.72C162.91 46.08 164.24 44.74 165.88 44.74C167.52 44.74 168.85 46.08 168.85 47.72Z" id="bgGaHVhAU"></path><path d="M148.86 33.35C148.86 34.99 147.53 36.32 145.89 36.32C144.25 36.32 142.91 34.99 142.91 33.35C142.91 31.71 144.25 30.38 145.89 30.38C147.53 30.38 148.86 31.71 148.86 33.35Z" id="el3gsxFaC"></path><path d="M168.85 32.75C168.85 34.4 167.52 35.73 165.88 35.73C164.24 35.73 162.91 34.4 162.91 32.75C162.91 31.11 164.24 29.78 165.88 29.78C167.52 29.78 168.85 31.11 168.85 32.75Z" id="efFg21EBY"></path><path d="M214.36 47.72C214.36 49.36 213.03 50.69 211.38 50.69C209.74 50.69 208.41 49.36 208.41 47.72C208.41 46.08 209.74 44.74 211.38 44.74C213.03 44.74 214.36 46.08 214.36 47.72Z" id="e1n0zzZwCU"></path><path d="M200.09 9.24C200.09 10.88 198.76 12.21 197.11 12.21C195.47 12.21 194.14 10.88 194.14 9.24C194.14 7.59 195.47 6.26 197.11 6.26C198.76 6.26 200.09 7.59 200.09 9.24Z" id="a2l8LuSgXg"></path><path d="M230.18 9.24C230.18 10.88 228.85 12.21 227.21 12.21C225.57 12.21 224.23 10.88 224.23 9.24C224.23 7.59 225.57 6.26 227.21 6.26C228.85 6.26 230.18 7.59 230.18 9.24Z" id="bflRBZ47"></path><path d="M240.85 47.72C240.85 49.36 239.52 50.69 237.88 50.69C236.24 50.69 234.9 49.36 234.9 47.72C234.9 46.08 236.24 44.74 237.88 44.74C239.52 44.74 240.85 46.08 240.85 47.72Z" id="aZuSusM3x"></path><path d="M240.85 19.11C240.85 20.75 239.52 22.08 237.88 22.08C236.24 22.08 234.9 20.75 234.9 19.11C234.9 17.47 236.24 16.14 237.88 16.14C239.52 16.14 240.85 17.47 240.85 19.11Z" id="a5bE7sKIM"></path><path d="M240.85 9.24C240.85 10.88 239.52 12.21 237.88 12.21C236.24 12.21 234.9 10.88 234.9 9.24C234.9 7.59 236.24 6.26 237.88 6.26C239.52 6.26 240.85 7.59 240.85 9.24Z" id="aVFABJMmu"></path><path d="M253.24 19.11C253.24 20.75 251.91 22.08 250.27 22.08C248.62 22.08 247.29 20.75 247.29 19.11C247.29 17.47 248.62 16.14 250.27 16.14C251.91 16.14 253.24 17.47 253.24 19.11Z" id="bRMznLDQt"></path><path d="M272.73 19.11C272.73 20.75 271.39 22.08 269.75 22.08C268.11 22.08 266.78 20.75 266.78 19.11C266.78 17.47 268.11 16.14 269.75 16.14C271.39 16.14 272.73 17.47 272.73 19.11Z" id="bNEc2Ycpp"></path><path d="M272.73 47.72C272.73 49.36 271.39 50.69 269.75 50.69C268.11 50.69 266.78 49.36 266.78 47.72C266.78 46.08 268.11 44.74 269.75 44.74C271.39 44.74 272.73 46.08 272.73 47.72Z" id="aS4a0RGC"></path><path d="M253.24 47.72C253.24 49.36 251.91 50.69 250.27 50.69C248.62 50.69 247.29 49.36 247.29 47.72C247.29 46.08 248.62 44.74 250.27 44.74C251.91 44.74 253.24 46.08 253.24 47.72Z" id="awybrygo"></path></defs><g><g><g><use xlink:href="#a2cD2R96qp" opacity="1" fill="#2452ce" fill-opacity="1"></use></g><g><g><use xlink:href="#b3JrMIxJX" opacity="1" fill-opacity="0" stroke="#000000" stroke-width="2" stroke-opacity="1"></use></g></g><g><g><use xlink:href="#b24dMtptG2" opacity="1" fill-opacity="0" stroke="#000000" stroke-width="2" stroke-opacity="1"></use></g></g><g><g><use xlink:href="#bPJBtTMV" opacity="1" fill-opacity="0" stroke="#000000" stroke-width="2" stroke-opacity="1"></use></g></g><g><g><use xlink:href="#a87Qx14j5O" opacity="1" fill-opacity="0" stroke="#000000" stroke-width="2" stroke-opacity="1"></use></g></g><g><g><use xlink:href="#b1C9eIGPKD" opacity="1" fill-opacity="0" stroke="#000000" stroke-width="2" stroke-opacity="1"></use></g></g><g><g><use xlink:href="#dFpm7Ncq2" opacity="1" fill-opacity="0" stroke="#000000" stroke-width="2" stroke-opacity="1"></use></g></g><g><g><use xlink:href="#a5KQVAdmqA" opacity="1" fill-opacity="0" stroke="#000000" stroke-width="2" stroke-opacity="1"></use></g></g><g><g><use xlink:href="#cbCYfMmUi" opacity="1" fill-opacity="0" stroke="#000000" stroke-width="2" stroke-opacity="1"></use></g></g><g><use xlink:href="#aK11VynV6" opacity="1" fill="#2452ce" fill-opacity="1"></use></g><g><g><use xlink:href="#asQRp6R5M" opacity="1" fill-opacity="0" stroke="#6e3f3f" stroke-width="2" stroke-opacity="1"></use></g></g><g><use xlink:href="#c1TkIK6X08" opacity="1" fill="#2452ce" fill-opacity="1"></use></g><g><use xlink:href="#hIB24Qymh" opacity="1" fill="#2452ce" fill-opacity="1"></use></g><g><use xlink:href="#baVaubJlTM" opacity="1" fill="#2452ce" fill-opacity="1"></use></g><g><use xlink:href="#c2zE8w8fte" opacity="1" fill="#2452ce" fill-opacity="1"></use></g><g><use xlink:href="#a1FTWP7ze2" opacity="1" fill="#2452ce" fill-opacity="1"></use></g><g><use xlink:href="#d1zmc9JoNi" opacity="1" fill="#2452ce" fill-opacity="1"></use></g><g><use xlink:href="#h1j8fdLHfl" opacity="1" fill="#2452ce" fill-opacity="1"></use></g><g><use xlink:href="#i7imkMlux" opacity="1" fill="#2452ce" fill-opacity="1"></use></g><g><use xlink:href="#bgGaHVhAU" opacity="1" fill="#2452ce" fill-opacity="1"></use></g><g><use xlink:href="#el3gsxFaC" opacity="1" fill="#2452ce" fill-opacity="1"></use></g><g><use xlink:href="#efFg21EBY" opacity="1" fill="#2452ce" fill-opacity="1"></use></g><g><use xlink:href="#e1n0zzZwCU" opacity="1" fill="#2452ce" fill-opacity="1"></use></g><g><use xlink:href="#a2l8LuSgXg" opacity="1" fill="#2452ce" fill-opacity="1"></use></g><g><use xlink:href="#bflRBZ47" opacity="1" fill="#2452ce" fill-opacity="1"></use></g><g><use xlink:href="#aZuSusM3x" opacity="1" fill="#2452ce" fill-opacity="1"></use></g><g><use xlink:href="#a5bE7sKIM" opacity="1" fill="#2452ce" fill-opacity="1"></use></g><g><use xlink:href="#aVFABJMmu" opacity="1" fill="#2452ce" fill-opacity="1"></use></g><g><use xlink:href="#bRMznLDQt" opacity="1" fill="#2452ce" fill-opacity="1"></use></g><g><use xlink:href="#bNEc2Ycpp" opacity="1" fill="#2452ce" fill-opacity="1"></use></g><g><use xlink:href="#aS4a0RGC" opacity="1" fill="#2452ce" fill-opacity="1"></use></g><g><use xlink:href="#awybrygo" opacity="1" fill="#2452ce" fill-opacity="1"></use></g></g></g></svg>