<?xml version="1.0" encoding="UTF-8" standalone="no"?>
<!DOCTYPE svg PUBLIC "-//W3C//DTD SVG 1.1//EN" "http://www.w3.org/Graphics/SVG/1.1/DTD/svg11.dtd">
<svg version="1.1" xmlns="http://www.w3.org/2000/svg" xmlns:xlink="http://www.w3.org/1999/xlink" preserveAspectRatio="xMidYMid meet" viewBox="0 0 250 60" width="250" height="60"><defs><path d="M135.38 48.82C128.37 49.96 123.19 49.28 119.86 46.79C116.53 44.3 115.04 39.99 115.39 33.86C116.74 25.33 120.48 21.07 126.58 21.07C132.69 21.07 135.62 25.33 135.38 33.86" id="a8HqHVboP"></path><path d="M135.39 33.75L115.34 33.75" id="jlus8Br7r"></path><path d="M161.26 23.08L144.73 23.08" id="ckAf2eThh"></path><path d="M161.26 48.72C156.15 49.98 153.1 49.38 152.1 46.93C151.1 44.49 150.57 32.25 150.5 10.24" id="brohwpAvu"></path><path d="M196.71 10.24L180.88 49.25L166.61 10.24" id="d16HNPdm9R"></path><path d="M207.38 48.03L207.38 20.11" id="a2ZRlBOLn2"></path><path d="M241.78 48.65L219.77 48.65L240.23 20.05L220.74 20.05" id="c5nxF2d9f"></path><path d="" id="a1ZkLRp0vv"></path><path d="M100.67 10.24L100.67 49.36L72.21 10.24L72.21 48.72" id="a3vxmBpPfv"></path><path d="M103.64 10.24C103.64 11.88 102.31 13.21 100.67 13.21C99.03 13.21 97.7 11.88 97.7 10.24C97.7 8.59 99.03 7.26 100.67 7.26C102.31 7.26 103.64 8.59 103.64 10.24Z" id="d15UTlFQ4y"></path><path d="" id="blxwKiHUF"></path><path d="M55.46 48.72C43.69 51.22 37.91 46.78 38.13 35.4C38.35 24.01 44.13 19.79 55.46 22.74" id="esKQGHT1u"></path><path d="M26.84 48.72C15.06 51.22 9.28 46.78 9.51 35.4C9.73 24.01 15.51 19.79 26.84 22.74" id="a1n6GI3R0e"></path><path d="" id="c3jSsKqikh"></path><path d="" id="b3Kmv6bU9Y"></path><path d="" id="b1fra2RdDV"></path><path d="M153.48 10.24C153.48 11.88 152.15 13.21 150.5 13.21C148.86 13.21 147.53 11.88 147.53 10.24C147.53 8.59 148.86 7.26 150.5 7.26C152.15 7.26 153.48 8.59 153.48 10.24Z" id="b4KjaCDYVd"></path><path d="M138.35 48.72C138.35 50.36 137.02 51.69 135.38 51.69C133.74 51.69 132.41 50.36 132.41 48.72C132.41 47.08 133.74 45.74 135.38 45.74C137.02 45.74 138.35 47.08 138.35 48.72Z" id="a37L89y9De"></path><path d="M118.36 34.35C118.36 35.99 117.03 37.32 115.39 37.32C113.75 37.32 112.41 35.99 112.41 34.35C112.41 32.71 113.75 31.38 115.39 31.38C117.03 31.38 118.36 32.71 118.36 34.35Z" id="dMRbX40bE"></path><path d="M75.19 10.24C75.19 11.88 73.86 13.21 72.21 13.21C70.57 13.21 69.24 11.88 69.24 10.24C69.24 8.59 70.57 7.26 72.21 7.26C73.86 7.26 75.19 8.59 75.19 10.24Z" id="g1kiTFKdTZ"></path><path d="M183.86 48.72C183.86 50.36 182.53 51.69 180.88 51.69C179.24 51.69 177.91 50.36 177.91 48.72C177.91 47.08 179.24 45.74 180.88 45.74C182.53 45.74 183.86 47.08 183.86 48.72Z" id="d1YMMws4A2"></path><path d="M169.59 10.24C169.59 11.88 168.26 13.21 166.61 13.21C164.97 13.21 163.64 11.88 163.64 10.24C163.64 8.59 164.97 7.26 166.61 7.26C168.26 7.26 169.59 8.59 169.59 10.24Z" id="c4vJ3yxE8L"></path><path d="M199.68 10.24C199.68 11.88 198.35 13.21 196.71 13.21C195.07 13.21 193.73 11.88 193.73 10.24C193.73 8.59 195.07 7.26 196.71 7.26C198.35 7.26 199.68 8.59 199.68 10.24Z" id="e1NF6kQVpn"></path><path d="M210.35 48.72C210.35 50.36 209.02 51.69 207.38 51.69C205.74 51.69 204.4 50.36 204.4 48.72C204.4 47.08 205.74 45.74 207.38 45.74C209.02 45.74 210.35 47.08 210.35 48.72Z" id="a2fa50HsQG"></path><path d="M210.35 20.11C210.35 21.75 209.02 23.08 207.38 23.08C205.74 23.08 204.4 21.75 204.4 20.11C204.4 18.47 205.74 17.14 207.38 17.14C209.02 17.14 210.35 18.47 210.35 20.11Z" id="eHoTEsJ2"></path><path d="M210.35 10.24C210.35 11.88 209.02 13.21 207.38 13.21C205.74 13.21 204.4 11.88 204.4 10.24C204.4 8.59 205.74 7.26 207.38 7.26C209.02 7.26 210.35 8.59 210.35 10.24Z" id="c3C82nnY4F"></path><path d="M222.74 20.11C222.74 21.75 221.41 23.08 219.77 23.08C218.12 23.08 216.79 21.75 216.79 20.11C216.79 18.47 218.12 17.14 219.77 17.14C221.41 17.14 222.74 18.47 222.74 20.11Z" id="b104ERZalV"></path><path d="M242.23 20.11C242.23 21.75 240.89 23.08 239.25 23.08C237.61 23.08 236.28 21.75 236.28 20.11C236.28 18.47 237.61 17.14 239.25 17.14C240.89 17.14 242.23 18.47 242.23 20.11Z" id="aeHctuW1m"></path><path d="M242.23 48.72C242.23 50.36 240.89 51.69 239.25 51.69C237.61 51.69 236.28 50.36 236.28 48.72C236.28 47.08 237.61 45.74 239.25 45.74C240.89 45.74 242.23 47.08 242.23 48.72Z" id="b2JgB3rWzS"></path><path d="M222.74 48.72C222.74 50.36 221.41 51.69 219.77 51.69C218.12 51.69 216.79 50.36 216.79 48.72C216.79 47.08 218.12 45.74 219.77 45.74C221.41 45.74 222.74 47.08 222.74 48.72Z" id="c1beDqhJtZ"></path><path d="M75.19 48.72C75.19 50.36 73.86 51.69 72.21 51.69C70.57 51.69 69.24 50.36 69.24 48.72C69.24 47.08 70.57 45.74 72.21 45.74C73.86 45.74 75.19 47.08 75.19 48.72Z" id="cagmGnIWy"></path><path d="M103.64 48.72C103.64 50.36 102.31 51.69 100.67 51.69C99.03 51.69 97.7 50.36 97.7 48.72C97.7 47.08 99.03 45.74 100.67 45.74C102.31 45.74 103.64 47.08 103.64 48.72Z" id="b448WLQvXm"></path><path d="M138.35 33.72C138.35 35.36 137.02 36.69 135.38 36.69C133.74 36.69 132.41 35.36 132.41 33.72C132.41 32.08 133.74 30.74 135.38 30.74C137.02 30.74 138.35 32.08 138.35 33.72Z" id="f1yvAtOTHc"></path><path d="M163.6 48.72C163.6 50.36 162.27 51.69 160.63 51.69C158.99 51.69 157.66 50.36 157.66 48.72C157.66 47.08 158.99 45.74 160.63 45.74C162.27 45.74 163.6 47.08 163.6 48.72Z" id="a1bWiLdp2W"></path><path d="M163.64 23.08C163.64 24.73 162.31 26.06 160.67 26.06C159.02 26.06 157.69 24.73 157.69 23.08C157.69 21.44 159.02 20.11 160.67 20.11C162.31 20.11 163.64 21.44 163.64 23.08Z" id="cvNFUxp3n"></path><path d="M145.53 23.08C145.53 24.73 144.2 26.06 142.56 26.06C140.91 26.06 139.58 24.73 139.58 23.08C139.58 21.44 140.91 20.11 142.56 20.11C144.2 20.11 145.53 21.44 145.53 23.08Z" id="c1MvML7NaL"></path><path d="M29.81 22.74C29.81 24.38 28.48 25.71 26.84 25.71C25.2 25.71 23.86 24.38 23.86 22.74C23.86 21.09 25.2 19.76 26.84 19.76C28.48 19.76 29.81 21.09 29.81 22.74Z" id="fE6PiOeHx"></path><path d="M29.81 48.72C29.81 50.36 28.48 51.69 26.84 51.69C25.2 51.69 23.86 50.36 23.86 48.72C23.86 47.08 25.2 45.74 26.84 45.74C28.48 45.74 29.81 47.08 29.81 48.72Z" id="d2yLbIg6VY"></path><path d="M58.44 22.74C58.44 24.38 57.11 25.71 55.46 25.71C53.82 25.71 52.49 24.38 52.49 22.74C52.49 21.09 53.82 19.76 55.46 19.76C57.11 19.76 58.44 21.09 58.44 22.74Z" id="c8S73biJj"></path><path d="M58.44 48.72C58.44 50.36 57.11 51.69 55.46 51.69C53.82 51.69 52.49 50.36 52.49 48.72C52.49 47.08 53.82 45.74 55.46 45.74C57.11 45.74 58.44 47.08 58.44 48.72Z" id="a11ivwZwNO"></path></defs><g><g><g><g><use xlink:href="#a8HqHVboP" opacity="1" fill-opacity="0" stroke="#000000" stroke-width="2" stroke-opacity="1"></use></g></g><g><g><use xlink:href="#jlus8Br7r" opacity="1" fill-opacity="0" stroke="#000000" stroke-width="2" stroke-opacity="1"></use></g></g><g><g><use xlink:href="#ckAf2eThh" opacity="1" fill-opacity="0" stroke="#000000" stroke-width="2" stroke-opacity="1"></use></g></g><g><g><use xlink:href="#brohwpAvu" opacity="1" fill-opacity="0" stroke="#000000" stroke-width="2" stroke-opacity="1"></use></g></g><g><g><use xlink:href="#d16HNPdm9R" opacity="1" fill-opacity="0" stroke="#000000" stroke-width="2" stroke-opacity="1"></use></g></g><g><g><use xlink:href="#a2ZRlBOLn2" opacity="1" fill-opacity="0" stroke="#000000" stroke-width="2" stroke-opacity="1"></use></g></g><g><g><use xlink:href="#c5nxF2d9f" opacity="1" fill-opacity="0" stroke="#000000" stroke-width="2" stroke-opacity="1"></use></g></g><g><g><use xlink:href="#a1ZkLRp0vv" opacity="1" fill-opacity="0" stroke="#6e3f3f" stroke-width="2" stroke-opacity="1"></use></g></g><g><g><use xlink:href="#a3vxmBpPfv" opacity="1" fill-opacity="0" stroke="#000000" stroke-width="2" stroke-opacity="1"></use></g></g><g><use xlink:href="#d15UTlFQ4y" opacity="1" fill="#2452ce" fill-opacity="1"></use></g><g><g><use xlink:href="#blxwKiHUF" opacity="1" fill-opacity="0" stroke="#000000" stroke-width="2" stroke-opacity="1"></use></g></g><g><g><use xlink:href="#esKQGHT1u" opacity="1" fill-opacity="0" stroke="#000000" stroke-width="2" stroke-opacity="1"></use></g></g><g><g><use xlink:href="#a1n6GI3R0e" opacity="1" fill-opacity="0" stroke="#000000" stroke-width="2" stroke-opacity="1"></use></g></g><g><g><use xlink:href="#c3jSsKqikh" opacity="1" fill-opacity="0" stroke="#000000" stroke-width="2" stroke-opacity="1"></use></g></g><g><g><use xlink:href="#b3Kmv6bU9Y" opacity="1" fill-opacity="0" stroke="#000000" stroke-width="1" stroke-opacity="1"></use></g></g><g><g><use xlink:href="#b1fra2RdDV" opacity="1" fill-opacity="0" stroke="#000000" stroke-width="1" stroke-opacity="1"></use></g></g><g><use xlink:href="#b4KjaCDYVd" opacity="1" fill="#2452ce" fill-opacity="1"></use></g><g><use xlink:href="#a37L89y9De" opacity="1" fill="#2452ce" fill-opacity="1"></use></g><g><use xlink:href="#dMRbX40bE" opacity="1" fill="#2452ce" fill-opacity="1"></use></g><g><use xlink:href="#g1kiTFKdTZ" opacity="1" fill="#2452ce" fill-opacity="1"></use></g><g><use xlink:href="#d1YMMws4A2" opacity="1" fill="#2452ce" fill-opacity="1"></use></g><g><use xlink:href="#c4vJ3yxE8L" opacity="1" fill="#2452ce" fill-opacity="1"></use></g><g><use xlink:href="#e1NF6kQVpn" opacity="1" fill="#2452ce" fill-opacity="1"></use></g><g><use xlink:href="#a2fa50HsQG" opacity="1" fill="#2452ce" fill-opacity="1"></use></g><g><use xlink:href="#eHoTEsJ2" opacity="1" fill="#2452ce" fill-opacity="1"></use></g><g><use xlink:href="#c3C82nnY4F" opacity="1" fill="#2452ce" fill-opacity="1"></use></g><g><use xlink:href="#b104ERZalV" opacity="1" fill="#2452ce" fill-opacity="1"></use></g><g><use xlink:href="#aeHctuW1m" opacity="1" fill="#2452ce" fill-opacity="1"></use></g><g><use xlink:href="#b2JgB3rWzS" opacity="1" fill="#2452ce" fill-opacity="1"></use></g><g><use xlink:href="#c1beDqhJtZ" opacity="1" fill="#2452ce" fill-opacity="1"></use></g><g><use xlink:href="#cagmGnIWy" opacity="1" fill="#2452ce" fill-opacity="1"></use></g><g><use xlink:href="#b448WLQvXm" opacity="1" fill="#2452ce" fill-opacity="1"></use></g><g><use xlink:href="#f1yvAtOTHc" opacity="1" fill="#2452ce" fill-opacity="1"></use></g><g><use xlink:href="#a1bWiLdp2W" opacity="1" fill="#2452ce" fill-opacity="1"></use></g><g><use xlink:href="#cvNFUxp3n" opacity="1" fill="#2452ce" fill-opacity="1"></use></g><g><use xlink:href="#c1MvML7NaL" opacity="1" fill="#2452ce" fill-opacity="1"></use></g><g><use xlink:href="#fE6PiOeHx" opacity="1" fill="#2452ce" fill-opacity="1"></use></g><g><use xlink:href="#d2yLbIg6VY" opacity="1" fill="#2452ce" fill-opacity="1"></use></g><g><use xlink:href="#c8S73biJj" opacity="1" fill="#2452ce" fill-opacity="1"></use></g><g><use xlink:href="#a11ivwZwNO" opacity="1" fill="#2452ce" fill-opacity="1"></use></g></g></g></svg>